<mxfile host="65bd71144e">
    <diagram id="Fw1BLvARygr1x0tGvwAP" name="Page-1">
        <mxGraphModel dx="1160" dy="548" grid="1" gridSize="10" guides="1" tooltips="1" connect="1" arrows="1" fold="1" page="1" pageScale="1" pageWidth="850" pageHeight="1100" math="0" shadow="0">
            <root>
                <mxCell id="0"/>
                <mxCell id="1" parent="0"/>
                <mxCell id="2" value="" style="shape=umlActor;verticalLabelPosition=bottom;verticalAlign=top;html=1;outlineConnect=0;" parent="1" vertex="1">
                    <mxGeometry x="390" y="10" width="30" height="60" as="geometry"/>
                </mxCell>
                <mxCell id="4" value="" style="rounded=0;whiteSpace=wrap;html=1;" parent="1" vertex="1">
                    <mxGeometry x="260" y="100" width="300" height="60" as="geometry"/>
                </mxCell>
                <mxCell id="6" value="&lt;font style=&quot;font-size: 14px;&quot;&gt;Controller&lt;/font&gt;" style="text;html=1;strokeColor=none;fillColor=none;align=center;verticalAlign=middle;whiteSpace=wrap;rounded=0;" parent="1" vertex="1">
                    <mxGeometry x="375" y="115" width="60" height="30" as="geometry"/>
                </mxCell>
                <mxCell id="7" value="" style="rounded=0;whiteSpace=wrap;html=1;" parent="1" vertex="1">
                    <mxGeometry x="260" y="220" width="300" height="60" as="geometry"/>
                </mxCell>
                <mxCell id="8" value="" style="rounded=0;whiteSpace=wrap;html=1;" parent="1" vertex="1">
                    <mxGeometry x="260" y="340" width="300" height="60" as="geometry"/>
                </mxCell>
                <mxCell id="9" value="&lt;font style=&quot;font-size: 14px;&quot;&gt;Service&lt;/font&gt;" style="text;html=1;strokeColor=none;fillColor=none;align=center;verticalAlign=middle;whiteSpace=wrap;rounded=0;" parent="1" vertex="1">
                    <mxGeometry x="370" y="230" width="70" height="40" as="geometry"/>
                </mxCell>
                <mxCell id="10" value="Data Access" style="text;html=1;strokeColor=none;fillColor=none;align=center;verticalAlign=middle;whiteSpace=wrap;rounded=0;fontSize=14;" parent="1" vertex="1">
                    <mxGeometry x="330" y="355" width="150" height="30" as="geometry"/>
                </mxCell>
                <mxCell id="11" value="" style="endArrow=classic;html=1;fontSize=14;entryX=0.25;entryY=1;entryDx=0;entryDy=0;exitX=0.25;exitY=0;exitDx=0;exitDy=0;" parent="1" source="7" target="4" edge="1">
                    <mxGeometry width="50" height="50" relative="1" as="geometry">
                        <mxPoint x="370" y="220" as="sourcePoint"/>
                        <mxPoint x="480" y="210" as="targetPoint"/>
                    </mxGeometry>
                </mxCell>
                <mxCell id="12" value="" style="endArrow=classic;html=1;fontSize=14;entryX=0.25;entryY=1;entryDx=0;entryDy=0;exitX=0.25;exitY=0;exitDx=0;exitDy=0;" parent="1" edge="1">
                    <mxGeometry width="50" height="50" relative="1" as="geometry">
                        <mxPoint x="330" y="340" as="sourcePoint"/>
                        <mxPoint x="330" y="280" as="targetPoint"/>
                    </mxGeometry>
                </mxCell>
                <mxCell id="13" value="" style="endArrow=classic;html=1;fontSize=14;entryX=0.25;entryY=1;entryDx=0;entryDy=0;exitX=0.25;exitY=0;exitDx=0;exitDy=0;" parent="1" edge="1">
                    <mxGeometry width="50" height="50" relative="1" as="geometry">
                        <mxPoint x="330" y="100" as="sourcePoint"/>
                        <mxPoint x="330" y="40" as="targetPoint"/>
                    </mxGeometry>
                </mxCell>
                <mxCell id="15" value="" style="endArrow=classic;html=1;fontSize=14;entryX=0.75;entryY=0;entryDx=0;entryDy=0;exitX=0.75;exitY=1;exitDx=0;exitDy=0;" parent="1" source="7" target="8" edge="1">
                    <mxGeometry width="50" height="50" relative="1" as="geometry">
                        <mxPoint x="490" y="250" as="sourcePoint"/>
                        <mxPoint x="540" y="200" as="targetPoint"/>
                    </mxGeometry>
                </mxCell>
                <mxCell id="16" value="" style="endArrow=classic;html=1;fontSize=14;entryX=0.75;entryY=0;entryDx=0;entryDy=0;exitX=0.75;exitY=1;exitDx=0;exitDy=0;" parent="1" edge="1">
                    <mxGeometry width="50" height="50" relative="1" as="geometry">
                        <mxPoint x="480" y="160" as="sourcePoint"/>
                        <mxPoint x="480" y="220" as="targetPoint"/>
                    </mxGeometry>
                </mxCell>
                <mxCell id="17" value="" style="endArrow=classic;html=1;fontSize=14;entryX=0.75;entryY=0;entryDx=0;entryDy=0;exitX=0.75;exitY=1;exitDx=0;exitDy=0;" parent="1" edge="1">
                    <mxGeometry width="50" height="50" relative="1" as="geometry">
                        <mxPoint x="480" y="40" as="sourcePoint"/>
                        <mxPoint x="480" y="100" as="targetPoint"/>
                    </mxGeometry>
                </mxCell>
                <mxCell id="18" value="" style="endArrow=classic;html=1;fontSize=14;entryX=0.75;entryY=0;entryDx=0;entryDy=0;exitX=0.75;exitY=1;exitDx=0;exitDy=0;" parent="1" edge="1">
                    <mxGeometry width="50" height="50" relative="1" as="geometry">
                        <mxPoint x="480" y="410" as="sourcePoint"/>
                        <mxPoint x="480" y="470" as="targetPoint"/>
                    </mxGeometry>
                </mxCell>
                <mxCell id="19" value="" style="endArrow=classic;html=1;fontSize=14;entryX=0.25;entryY=1;entryDx=0;entryDy=0;exitX=0.25;exitY=0;exitDx=0;exitDy=0;" parent="1" edge="1">
                    <mxGeometry width="50" height="50" relative="1" as="geometry">
                        <mxPoint x="375" y="470" as="sourcePoint"/>
                        <mxPoint x="375" y="410" as="targetPoint"/>
                    </mxGeometry>
                </mxCell>
                <mxCell id="21" value="" style="shape=image;verticalLabelPosition=bottom;labelBackgroundColor=default;verticalAlign=top;aspect=fixed;imageAspect=0;image=data:image/png,iVBORw0KGgoAAAANSUhEUgAAAggAAACNCAYAAADSHoIhAAAAAXNSR0IArs4c6QAAIABJREFUeF7tXQmYFNW1/k91DzNsKgq4Ep95z6iYmBiNisBMVXdPAypuCYgbahRwiYkvMVHzNOKW7cVE465JXBKj4IogMDPdXTUDw4iKmpdIXOIad3CBAYaZ7q7zvtvLTE9PdVV1d83G3Pv5qdN177n3/re666+zEvqpna3XfuM+reGlfppeTisRkAhIBCQCEgGJgA0C1F/onBEJ3vfRZ9tujMxu+Xt/rUHOKxGQCEgEJAISAYmANQL9RhBOqwsmN2zadm/D7Jbz5OFIBCQCEgGJgERAIjCwEOg3gnBqXYA/3dT2f6apLIjMaX5mYMEiVyMRkAhIBCQCEoGhjUC/EIQzG0LvJpLmhI2b2kxmuiQyZ80tQ/sY5O4lAhIBiYBEQCIwsBDoU4KwkBcqr0dWX6swLk8y+z7f0o5E3HxHgXJC3ZzVfxtY0MjVSAQkAhIBiYBEYOgi0GcE4eLlMyo/HdYxVWHcDtD+YEbrtji2tScA8M92oX1+/sjsR5JD9yjkziUCEgGJgERAIjBwEOgTgnDasiljqKLqRyB8m8AHggACYdv2BDZt60ih0VZFOzWf0Nw6cKCRK5EISAQkAhIBicDQRaBvCEJdsAXAoUSoTE2Y+df29gS+2JImCCCsjpyyZurQPQq5c4mAREAiIBGQCAwcBHqdIJxaF/yAgD1THCAzW/a/29uTXQQhjclzkTlrjhg48MiVSAQkAhIBiYBEYGgi0GsE4cy68PgEJ5aCcIQwJ3QjCBktggVB2M7AbSNGtv9s6cx124bmkchdSwQkAhIBiYBEoP8R6BWCMGeF+h+kKLcx45i0tiBNETo1CBmC0NaexKasiSGLBeFDgnntFqL7W2a3tPU/RHIFEgGJgERAIiARGHoIeE4QTtXVscnt9GeFaHqGB6R8DlIUIf1PpzbBkiCkL//LJOWHsdmrl4HAQ+9Y5I4lAhIBiYBEQCLQvwh4ThBOWRF4IeOQmCYCOf/K1yK0dSSxqTXjpNgTh3cSzNON01pe6V+I5OwSAYmAREAiIBEYegh4ShBmL9c+AdG4XCLQxQ+6mxnE59vtCYLokkj4vhhjzF6/ZegdjdyxREAiIBGQCEgE+g8BTwjCrMWzfDxy428VwoUg8ueaEXK1CPlmBuGk2MMHoScWr5smamOnr3mn/2CSM0sEJAISAYmARGBoIeAJQZj9dKCaCX8g8P5ZRwMrp8T8aAaXBEF4NzazosyPzl61fmgdj9ytREAiIBGQCEgE+geBsgnCrGXaYSlyQPhGvjkh9Xc290Hq/7v+EP/nmiAIQYzVSiIxt37us2/1D1RyVomAREAiIBGQCAwdBMoiCHPqa/eKd8RXE9F+3UIYRcxCXlKktLNiVoeQJg6WBMEuZoHx6piKvQ+WNRuGzg0qdyoRkAhIBCQC/YNAWQTh5GXqj4joNylzQqf6IP3/WW1BlihktQm5ZoYUQSgcxWCNCGNJ5PQ1J/YPXHJWiYBEQCIgEZAIDA0ESiYIJy7TDvOBn09lOHChLcgnCIJFtJdCEFKC+JuRU1teHBpHJHcpEZAISAQkAhKBvkegJIJw8lPqUVBQT8Dowk6J3c0JnQqGHDNDu3OYYwoRC6vDe/DR3OgpzXrfQyZnlAhIBCQCEgGJwI6PQGkEYan2IAhzAFasMiT20BZknBWzZogsdXCRB6HnCXSxhWdNnzJfn7P6bzv+MckdSgQkAhIBiYBEoG8RKJognLhU/QEB1xNhVKdWwKWZIT+rom0Ug3OC5TibdGHszOY/9C1kcjaJgERAIiARkAjs+AgURRBOfjqwL5vmbQCO7e6UmOOHkGENVlEL+WaGToLgTAYKngQRTY2c1rx6xz8quUOJgERAIiARkAj0HQKuCYJ6r1q1y1hcCsZ1Vk6JnTkOupkTuvwQuswO6ZAHcaWkKIae2CSip60ZJos69d1NI2eSCEgEJAISgR0fAdcEQWgPzKT5dvZB3+2/mT+sUyxbOCtm1A8lRzHknwvj0ugZa27c8Y9L7lAiIBGQCEgEJAJ9g4BrgnDCUzVPAZgpHvf5uQ3SpoNizQwizNEsPg9CT3KQ+oSSNDVyljQ19M1tI2eRCEgEJAISgR0dAVcEYSFDefGpmmTWNJD+b7p1ZVBMf5j7efr/uz7vlm0xlUnRxGa3iZKc/RT06BlrAjv6gcn9SQQkAhIBiYBEoC8QcEUQjl9S8wkB4zoJQl6NBXvi0DPFcoY2YHuHBUFwJgKFcSHcHT19zYK+AE7OIRGQCEgEJAISgR0ZAUeCcPwS9XCAIwB2FhqA/IqMWS1CVlvQaX7IaBPsohmEk+Lm1rhn+BJjeYKSC4wz1r7nmVApSCIgEZAISAQkAkMQAUeCMHNJzXICZmTf+i21CNlUyznmhELmh1wzg9cEIXV+zAuiZ7bcPQTPUm5ZIiARkAhIBCQCniFgSxBmPll9GkC/BWH33IJMnXEJ3bQEWf8D97UZRBSDZxqELtPEi1CU70RPX/2mZyhJQRIBiYBEQCIgERhiCNgShOOXVF/HTFf2dD7sVBm4d0q0yLbYkSEIRbsdOAxgmIfFznzmhSF2lnK7EgGJgERAIiAR8AyBggRh5hNTT2SiJ/J9DvLrKfRMmpQTtdBpl7AuAd3eYaK1tQNc6IFfJHPI7R47c42j+cQzFKUgiYBEQCIgEZAI7GAIWD5E1YWqf+TX+bsEviubITE/RLEHcehSKqSzImT/zv08p5KjuN6RimKIgwVDKIMMWJ0JEc+MntGybAc7L7kdiYBEQCIgEZAI9AkClgRh5lJ1LCfMOgDfFE/6HrkNLJwSuzQLGbWBlX+CBUFobY3DNLuzgyK5QiGgOHbmGqVPUJSTSAQkAhIBiYBEYAdDwJIgzHhM3UdRzH+nHvUWoY3dkiPl5kSw0RbkyxJ/x+PCxBBHMo8glIVxd3ZxZWzumhvKkicHSwQkAhIBiYBEYAgiYEkQjnm8egMRxvZ4qPfQCmSyH7gwJ2T0CinGkZ00kUibGJLJEnUGjsN4bWxuy1FD8FzlliUCEgGJgERAIlAWAoUIAnf3ISjOzJAmA861GRLJtAYhkXB80hfto5BB5TU26WT97OaXy0JJDpYISAQkAhIBicAQQ6AHQTjmcfU4wFzq3inRvRYhP9uiIAZbtsQRT5hdsLvgCkWdEeGO2JlrLixqjOwsEZAISAQkAhKBIY6ABUGo/gjA7lnzQr6ZwZE4ZGwJdimWs2aGToIQzyEIXh8IUbPJfL4xd80/vBYt5UkEJAISAYmARGBHRaAHQZjxePVHlE8QOh/6GVNDD58D5xLQXUSjq3hTnxAERpxA86JnNd+/ox6i3JdEQCIgEZAISAS8RqAbQZjx2NQbQLiUQMMynKCrhLNVNEMOcSilBHQya2LwSoNQ0DxB82JnNf/Ba/CkPImAREAiIBGQCOyoCHQjCNMfm7qMgGPzcx90mRvSGgRLM0MmwqE7sejKqtglI1OzgQhmgtEqfBBKIQhF+CqwyNWo+A7Vz1z9tx31IOW+JAISAYmAREAi4CUCnQRB1VV/1WfJpQRMtyQINtoCtyWguxMLgisNQhFEwA4Y08ShxjlrXvISPClLIiARkAhIBCQCOyoCnQRh+mPVxxP4Fga+lNYSdI9OyGoAbGsz5GoRbLItZrUMSRPY0hpHvKMXnRSzJ0e4LzZ3zTk76kHKfUkEJAISAYmARMBLBHIJwkKAr+4yEXQ3J2Q/L544pEda1WYQBGFrazxVk6HXG7MZO7vF1+vzyAkkAhIBiYBEQCKwAyBgQxDSyY6ymoN8gtDNKTFH49CzNHRmZDYLY0465mQS6TwIXhOEPLNE9k/9bFnhcQe4Z+UWJAISAYmARKAPEEg9rictnjR8J/L/nBRckp0zN49B9u0/Sxa8MjOYScbWLYnyNAgFyIAVdgy+1Ti75eI+wFVOIRGQCEgEJAISgUGNQIoHTH988hRm5a9gTMh3JMyt5JivRXBMmpRbvMnCzMBJkUmxAEFw4Zzookv+4ST0s9dUDOoTk4uXCEgEJAISAYlAHyCQeoTXLq4+nhRe0jOEsXsNhixBKLYEdHpcz9oMoszz1tYEOtq7+yCU8OB3C5UkCG6Rkv0kAhIBiYBEYEgj0IMgZM0I+Q/1rG9B2vTQ5Z/Q+Xlu1EKBEtBZB8fsHFmC0J5HEHrxRExFofnRuc1/7MU5pGiJgERAIiARkAgMegS6CALxEqtIg/yHekGC4EgculIsZwkCp8IcE2hvT/YekD3UEbRWP6dZloDuPcSlZImARKAfENB13a+Y8XYGWgHayDA3Emg9gBWsJFpUdcb7bpZ1zTXXkKZNPiDZkfyKQsphBDqEFezGzGPAPJIUZTiBhzFDZNz1MTMRUWVGdhzAJgBvskJ/Hj/+87snTpwlPutsRNSLSuLCO6yvr9+r0o+/MmNXYmoBmYt2GYu1hxwS3uYGF6s+hrFst0TCf6AP/i/5iMexgt3JpL2ZeJ9M/+1gfg+EZTWB8LJ8Gf2Fhdv90sylh41o7xj+vzDpwnyCkH6QW5gZMiwh1z8hSxzSPKEr+iH/81y/BWaPCYKr204SBLc3h+wnEZAIDB4EGhtWnsaK8uAAX/GbAF2fRPJlH/tZDYWe64v1NjQ07DzMxzcz46y+mM/lHOuTMM8RDIt9/KGmHfOey3F91o3UxeoeFRR/hUA7F0qx3EkRsqGKaRZgGQZp+Xmus2IO4RBiUhqE7Q4aBFcPfreY8Vr9nBapQXALl+wnEZAIDHgEGhvrJnCC3h3wC81dILNpAhcTKAkTa7VwuNcy3TbG6o9nE38GYaeBhhEDSQLqTeZlHQl+ePr06Z8NlDVS7UOT94Kf3s8Na0xrDtJLLPh5jhbBMZqhk1B0NzOIj4WT4vZcguAJGbARwvgXkuYcfd7adQPlEOQ6JAISAYlAOQgY0fp7AJxXjox+HCveEF8A8I+qkYlLjjrqmM1eryXWsPI0ZeBrV8DMTxLoOTUU/rnXGJQir5MgpElBlzkhSxLsiYOFFsEixXI3WTnRDJ0Eoa1UH4QS2AQjAdBv9e+uuawUwOQYiYBEQCIw0BDQV678LxBV+Spod2ZcwUBwoK3R5XpeIeD9mmA45LK/q27PNzTs3GqaE3wVyt4MvoYZR7oa2D+dhE/EY2owPLd/pu+atTtByIQkWPkWdPoVdNMGOJgZHGozpAjClgS2b3NDEEogA/noZkUQbtPPaflef4Mv55cISAQkAr2JwPPPP1+xZdPn/yTCl5i5mBwwSaXCd0R1dVC82btqTdGVRzCU2xk4ODNApLYvZs6ueRivMcyL1OC0GBH1ai5+I1r/lIj2B1DlZqMMfhVKMmTnMxCNPr2vjyp0MPZkTr17C4fOzszFbuYh4NaPP/3iktmzZ7t5QLoRWXSfNEHw0fudvgOWD/WeEQgpnlCSmaF7CWhrguAhGbCCRBKEom8UOUAiIBEYvAg0xhpONplvJ2B3V7sg/EwNhK9z1deiEzMrRrT+GCLlJ2AeDsLXSyELDPrx6J3H3Hz44Yd3i4QodV2Fxum6XkVmvM2VXMJLaiB8qKu+AJYsWTJ651HDbwNhPzCmuB2X6ke4rnVr+y9nzpxZcqRFUfPldabA4kl7K/C9Jx72mdiDTv+DLAlwZWbIIxb5jo3dZOWYGbZuibvUINhss1g+IQlCOfeMHCsRkAgMQgT0SP0ZBNwMwq5Oy0+wckAoFHrNqZ+b67quj6Vk/Psg7FmKnwSBrjKV936jaedsdzNfqX2MaP2fAZzhOL5IgpCVJ0hTk95wOzOpAB/gOE+mg5/8X50SCLzstr+X/SjwxKQjlLhvbZejYfc3/FwHxOIrOeYVe7LwTyhIEIp96BeDiiQIxaAl+0oEJAI7AAILFy5U1KlH/x3ARKfteEkQsnM9v3TpiNYRlXMV4AwGJjutoft1vqdqZPLS3nBgzM6j63VfJZMEPk6tSQ2Ga5w6WV0XmgogcRSZ5g0AHe1GBhGW1wTCx7rp63UfCi6afAMR/bQrAVIBc4KYOevEmKstsK3k2BUK0SONc0aLkCIIW/vYxCIJgtf3kZQnEZAIDAIEjGj9P9DlI1Bwxb1BEMRkixcv9o0bN3Icmf4HAQoUAVmCgftG77zrhb1lbojFVh6ssCLwcWj0uBqs/bZTr0LXRWKpxmjdFIioCsYEN3LUYLgo/wU3Mt30odCiKatBaTaXa2bomULZLvdBxqDgmjikZkv9s63VAxODi512U0gQbjOkk6IL1GQXiYBEYEdCoL8JQi6Wut7wCzJZOIuPco0x4Vqmius0TUu4HuOyo3uCgD+owfA8l2ILdjOi9c0AXGkRQNigBsLjy52z2PEUXDyFe1ZsLGxmyGoRiioBbVmbofcIQg/rRN4HRHSH/u6a72EhetU7ttjDkP0lAhIBiUBvIjCQCILYZywWO0Dh5GKAD3G7bwIuH7nzW789/PAFnjouuiUIDNysBcOXuF2vXT8jWu/WmL5VDYbdEykvFiee28FFU9iqBoNlVsWMmqEnoUjnUEi1AtkWLTUSIGwrwknRFZJuOhHuH+YffVH93PqtHuEoxUgEJAISgQGPwEAjCAKwxoaGr7HCd7p+m06/cB5bEwgv9xJwtwQBjOvUUPhnXszdGK2/hQE3Iff9RxDyH+rp53yXFsExq6IFcehRmyGPOGTnKEQQnLQA5R0OP9bRoVy45oI1n5QnR46WCEgEJAKDB4GBSBCETb4pVq8xSJCE/V2i+ZoaDLuOBHAj0y1BEBqMmmD4V25kOvVZvWTJ6MSo4W4yR/YjQShQntlai0BdYZCutQWFohkKJEpyowVwQt7mOoOeSoAuaD63+YMyxMihEgGJgERgUCEwEAmCAFBUoiQz/gCYTwGR4gZUApprguHi8grYCHZLEBjmxVpw+q1u1ujUZ/HixcPG77ZLu1M/kVOwn0wMkzlrFygUaZBREKT2kO7T5VCZa55wKupkZWZI1WJwlUnRBYQuuzDj8fgwumDNXKlBcAmZ7CYRkAjsAAgMVIKQhdaI1f8djK+6hPrdUSYdcnhtrSgvXXZzSxAUYF51MPyHsidMR3UMbIIQeHhyGxFVFTIzuC4BnWERtiWgLcwM2/qaIDDAhAdoe+VFxkXGFi8OWcqQCEgEJAKDAYGBThAEhka0vqOIrIuPqMHwbC+wd0sQmJU5Wii0yIs5BzxB0BZNXqWAUmqans6KBaIZcko9F3JKtKzwaJHG2TOCUJxZ4q5xO+1z0SOzH+njBAxe3FJShkRAIiARKA2BwUAQGqN11zPof1zucL1CmF8dCIuQwbKaW4JAhBNqAmFRv6HsNhgIwhUE/FyYB9w+1L0sAV0SQSiODPQ8RJEH4VxZrKnsu1sKkAhIBAYVAoOBIDStXLmnWaH8DcA4N+AyzMu14PSynQbdEgTTTE4P1M6oc7M2pz7uCQI9pwZrj3CS5/V1qn7wyP39fv9ruQShuzahd0tAOxKEcsmAFWKSIHh9H0l5EgGJwCBAYDAQBFGzoDHWcDqAB9xByvf4ho24bOrUqZ+762/dyzVBIKiBQLixnLmyY90ShC1tHbsed9xxZe2vlPWmqjkmFbxfuCBTTzNDV1rmbHmnrvwHnVUhc00WKcbRPXQy8xG2Zcs99wYRKISIJAil3CtyzABHQFVV/7hx4/iRR6TpbIAfVb8tbzAQBAFOrKFhmk/hxQzs5AYsZrNWC02PuOlbqI9bggCfcoSqhp4rZ67s2KamlXuaccU+mo7xoRoK7+XFfMXK6CQI6Qe2lZnBRW2GHv4L3VMv9yAUXTmV4KhBKHZHbvoPAIKgqsETiZTPmeNrDcNwrFImCq0YxuqjiazLtTIrLxtG/Stutm/XZ+rUaXsO8yWONIlELff8llDi/M/o6qgnVd7KXWv++IkTZw3bY7dPv8p+ZT9n2cm3N2/e/H/r1q3zNBub87yFe2haaFo67azynq7Xr3WSVV0dnuAnPpwVToWFMdNYwEwQ0RfZscyJZsMwPnKS1R/XNa12MsB72M3tS+LNSFPkxf5Yn9s5VVWtAvxHEWE3hzEJIPmKruuvupXtdb/BQhBSlQ9j9Tcw6HI3GPQlQWAFh2pa+CU363LqY0Tr1gA0qVA/Br8BxQxp2oy3nWT1xvUeBCHrdJgiDDkloC0/zxZvcqMtsHBsFHO09VYUg71G4jZjXp/7IFAgENaYOZQ6SOYfE/BPTijn6Kvr1xU63COPnLHTiBGJywH2g/EdANYPP6ImmOZqYq6LNcWairxZKBAIHMrs+w6xuT+DTgLQgyAQoYNNXg1FWevz8Z2RSOTdIufple6qWns2Eb7CzMMJUAF8w3ki/htYiUJBu9+PWxsaGvolJ4aqhr+qwDyFBSFjvgDALgAW6UZkTqE9hMPh/eJxngfmiUQ0U/yYFtwvYTEzrVGU5JOxWOwdZ1x6t4eqhqYQ0THpWfgUML5sNyMBLzLRyszvkRGLNdQXs0Lx/RlZlTgh1tggSvl61mbNmjVsw4YvziHCvgCPAovvDO/jMIEgo80gahH9xo7d5aq+1vYMFoIg8GmMNlzH4CvdHBoBN47d44ufHnzwbBEBUVJzq0EgkybW1Nb+s6RJcgbFYnVHKkzP2MhJgHHZuD33vvXggw8ueV/lrDNNEAjvW5oALMozZ76oqTlzzRKl1mYomyCUZproM4KgaeErwKaoWkZg7AfK/UGkv4GUs3S9Tjjk9GiaGnqYgb0ImOrykEVdjX8haZ4RWxV71s2YYDC4m5mkRWDsCXIuA5sj83kAn+pGZLqbebzuEwqFdk7GMR+EcIYQjC15DuZnQfS6yXxzY2PUE9Wh3VoCau3ZLB6OgB+E8WB8Lft1yoyzJAhTp84Y5/PFryXwtwA6rIj9inDeVxjKmV5omYqYt7NrQA38D0NRQfgSGF8pRQbAbwP0L4De0I2G851kaNWh01jB+cT4XG+MnODU3811VT1mDyB+twIexcChGULnZmjPPswxKPSGrkfmlyag+FGDiSA0xRqmMfPtDHsSmUaBW+OmMqG2jJwIbgmCSckDA4EZZWuBjGj90wAyZNnyLB9NsPK9UCj0cfEn7c0ICt5/xG48rKIBCg7NuiP2fNi7MDO4ruTYvWaDMDG0u02UVBoZ6IYUMzaD+KrGec/83hsIu0sJBGpPYpPvzfl0hE1M78oadcqxCxcu7FY0SlVrLyPwFUQ02vbtsPAGtjJoimE02KrBAmpoKYNrABpdMhbMa/TGaJG13UueLTUwoIauZsIPCahixrDypGVGE0ww2kA4XdcjSzyRmRESCoWmJBNYliOzCkClzRw9CEJQDX7HBP4EkLifrMw/bpa8hZEYYxiG55XwCk0eUIO/ZNC5AHYuIrbdaS8iPDk3h8lqED/FjKQCRWXgWCClVREYV4HxlBcEQasJvQPiMQCJojleld9N7YVAl8aMBk+S79iBN5gIQqo09K67PE0EYXpzbKxUjNE0rdO85jggr4NbgkBJfKUmHH69WPm5/Y1Yw21gXmDzXY6xUnGspmmO5udy1uE0NpUYMbB4yokw+fE0MSjglFiwNkPG+bCHmcGiBLSFmcGSIHhABKw2LsQSsG5Y5daa+rn/50mhJk0LH8mmuZTIXUhO7roYtMIwGjoZpKrWCtX4rwlc63Rwbq4zlK8ZRqr+e2ebNGnS8MrKUfMJfJMbGS77PObz49xIJOJJRjOrOYXGIJGg/QB+nCzMLERkgvmN/LHpNKEYAzjahzuHMuOfviQfF10dfdPl/rt1CwQCe8NUlmbeMEsR0UkQAoHAf3JSqe+ueSpFZNcYnx/79rJ5iKqrQ1/1+XAxGPllcZNgfEyErUwwmHmxotAETvIZRDSBAfFg/8/ydpg3ugyCoKrqKGLfFQBdAoIgZ/nCWwnUw8eDGT6kfxPck2/CKR0dbSuam5tbPd1/jrDBRBDEso1ovSjINMMNHn1FEFhJTNC0Y95zs6Zuv/e82Nesj/2vBBJngXGF9Xh6hxWcoWm1q4uV3xv9U5RAe2jy8URYUqqZIZt62dHMkGuyyBCKbZuL0CAUgUAhjsGEtU3ntRxVhCjbrjU1QU0hipUiL0sQZsyYsdP27fEQGI+VIsdmzAYGTjaMSOpmU9XgdwD6OgGu7HpFrYX5Z1Ujhv16xYoVbvKKFyVaVdWxxP5fgXBWAcb9NAif6Hrkuz0FL1RUdc3xxOYsAAeC8E03kxNhs8k4wTAihpv+uX00rfZ4MJejhVg0dtyY0zds+EwjkEjIMrzYNTj0fweknOLGEbKUeVU1eJZCdHcP7Q5DFEd7konuKKTdmjlz5ogtW9r+IPwrxL1ayvw9n+GlaRCEw26Fz7yMwT+wWMdHYDwLhet0PXp7/nVBLAD/2cSYBIIg/K5i+kG4hVm5O5/Ye4JD+oErXhgOdpKXYOWAUCjU787IA5IggC5mM/mZoihxsPKFQolNCeJNRGhPJPym359Q/MmKYXHFnICkuXsWa0WhnQHqca+kr9OrIKxjil9WCvlwOs9Sr3cSBBCW5DolelECurPYk01Rp7YiCULRyoW8AQysbZrvHUEQnuQ+Mr8DglCzH+egOs47J34bRE+AaVfAnA1Q7oMgCeYbgC6P9PR9JNSnCLo9cAKeS5g410+YwoTfFVifKPn9b2ZeBZBQyU5N2caLaYz1UJIne+2hPWvWLN/GDZ8/CEDY7PPbvwm8uKLS//O6urrPnJYbqg4dmiSeDqKfO/VNX+e3iX0XxhrrV7jrn+4VDAYP4ST9hZHyLSi+Ea0hZqGBEGVg9y5egPMIAv8hZkTz3+6dBzr00LTan4C5Z9IaRgeBzog1NjziZpJgTfBbJuEeD0jCJhDN1fWGojLfhdSQmqSUBuRki/W+BML1Ph8ibrRmmhaaDRN7g/BbN3sXJhHFz9+NRqOfuupfRKfBRxAaHiTwnIxmyXanw+LmbkdPn+74O1BIiFsTQ874OJg3gmgjA58RcxuDkkRCC0ZVgLk/QE6OqyljBm36AAAgAElEQVT/CZi4Wq2dJn6fB1RLEQT1waO/oSj0J+GHIP7uVuo5/UGqWZWATn1eMJqhK8lSJ/nI0yIIJ0UrH4SiiUDq99wZW68JQnbG1NsGxYUT4s5MSsl1yhloYebLFEUxq6r8z+e/kavq9P9gjk9QgCkuH3TtILwBhoijFR7ynY2BqxTTbDIVxQRoy7Bh9AG1ka/Dz3uZZnIEEfYm0I8AHO6MbOr+uDlmNPwQQDefCjdjC/XR1JDQfvT0cWC8CwU/Zk4sNwz3NTVErgAffN9h0E9cmgD+xcCZhhGx8zbutvzUHEnfVxIKdlMUuhScInXF+A0Iu6OwTY/MFSwe6iboQWbukSJcIeUWgIt54/6IwRcYRvTJcs4nd2xADV3Oae1Ut3Wn+jCW640RgYPrVl0dOsinIApgT9eD8joqzEdHG6OpqAG3LVgzbSpT8i4GDrIY8z5DCZXi7BmoqT2Tid0k/2kD0S91veFat2t222+wEYTGSN25IPo9w8q8033XPoWmTi1DNV8CQXALu20/AjoYeBOgDUTmZzWBaSd6ItgDIenHNYO0xZOvIeAq8We+s2L3FMzdH/rZ/p3mhSJLQJccxeCCDFjgkyTQ4cb8NZ7EsBbCPxMX/SMCri/mjBiJ4Z98Ms5cv/4Rx5CWTF6EG0Rt8mLmyJzXoybiZ44bNy7uEGZFEyfOqth9988awFTtYp4kI1HllROclk5GYkVOGISluh4R4ZilkBFS1drDAL6b0p7oto2hnGEYRz8EdHcmdRonrh922GEVo0eP9pHpPx4KSirwwuCzgaQYmyiErQi72/Txpr3jiikeQK5K4BLjwlhj5A43+3DqI/a506gx94FwmlXfza2fDysl54RWE7wRRIJ02rVFIF4DJvGGniZiRL/w+fhXbt7wcwWHw+GR8Q5TmIcstXRVwyuqyjCjifvuXALf44SnIIjEuCDWGHHT14W4dJfBRhAikWVf9lPF8wAJPyLb5gPmTg2GSw5n7S+CkLcp8WRrB6ilJhAKpXyr+rF1euIGFk1ZCOaru/IddDkrdiMIucmUchIedZoTXCZNyjyoUomSHKMYSiMDVrAmGue3VPQV3lpN7Y2k8PccPO03gHCOrkeE1qHonapq6A4CzkuFzNk1hsmEVw0jMrGU/Qe00J+YcY7jWEp+Q9d1y7BNx7GZDuJhs/PoXf7EoDOsx/DLuhF1WxK24LSaFrwQTEIdLrzSbRuZZk0J+SW6yUyZOBQRieAiTwPjEyK8OnL08OlLly7d5rS+3OupN3nGVdZOdV09RR4O8vGJ0Wh5ia9SZqCNn/0og6XVUlfqRsSVo5nVYE0NCc90EQVh2Yhos68DBzU0l5fLIuML9BsLx8rUvAR6OGY0nFrMWVj1dXs+AMdBvkm6XjhPSrFrGWwEQezPiNYL3xVHHw4GLtCC4TuLxSTbf4AQhG7LZ/AVSfYtDoVCJTlMl4pFdlwnQdAWHf1toSLO2jztzAxl+yfkmBm6EYSiH49Fb79PCYJYnaamDrZQZj9BDi7V9YgbtWPhB50aEh61trZqZl7a3rHtlJaWlraiUcsMUNXaxwks3toLN4apN0aKUaf3kJXKsMcsvuiWJCBpKl9qaqr/d6n7yB2naaFfg/FjF7JEzofScy10Yhg8l5h+DcKuBeckbCPGZdXqlNvzQ2BdrDPVRVODtwJ0oVM4nsl8RLm5H4JTgl9O+um+Qvk6kiYmNjVFSk4so6qhSwgp/5mCjZGYYBhG0Z7lWYHCLETk+y6Y7iowSavPjwnFaiQKLVhVg/cSSDjd2odLMl+rN0avdnvuTv12ZIKgEE2vDtSWXESpCIIg/Fnc+oeIkGaRKfE/nM7G5u7+l8J0TXUo/JfSZZQ2svPmVBeqfhwYf0oRISU54YhuSkBnoyM7jRN5Zobs51bVInsrisEKDgJdZcxfU5TavzRYu0bZEQQG9La2ihPXrl2xuZx5NC10GhjCkc/mB5RrDSNaVq7y0OTQlxJ+PElkr5bXjUjJMeIpp0/FFGpVy9hn8bYY0xsKvk2WgqOmhkSkQo3TWAJdEDMaSn5DEfJTYYum8rCtXwdxU0WF7+z6+vq3nNZU+AGk7kPwC3JqqzHzgiAEqgNHs6IULLdbLkGYNmnarh2VSdsf5HIJQjgcHt/RYa4sZHJi4PrW1s+vLcVMYnVGmjb9AHDi707nI8bqRkSEfnry+rQjE4SOJL4SLiM/gVuCwIq5v6ZN/5eb76au61WcSNQoCr6cctZDciaYik4uR0RxTpqX9bUjY7cfcm3RlGXEfGyuU2JvloAWALdtTjqbGNycRH4fi6/TiPZdqlZ83/swPLvl2ROE7nkQStlmdoymhmx/QBh83rhxu95XTmpX8ZYFVFzklEOhHIIQmBo4gn3KmoJOfYTv6HrE03DQ6urQ13wK/s8Rf8abemOkrBh9VVX3APwil0PB/OtOqZYd15npkEooBSy061+uH0LKvPDJZ7+28xMYDARBqwleCKLbCmHFKJ9g58uuqQnXKmQ6po4m8F9iRvRMt+du129HJgjb4+Zu0/sgiiFubt+3tvb4ktLM6/ryfUxT2UthuoqIRNRbEY1bGfwzLTjdyxw2tvN3IwjHL5k8urUNb2ST/vRFCWhPCIJLbt24oKXkN9siTrFb174iCAE19AQDBb1fGXiyvX3raeWYGMTGRIw7ge6zwyOR5K+vWhV1fuDmCRGOl4366r+AUNjOS8mv6rr+cqnnYTUu7ZiWfBRwZPYf60bEtriQ07pUVd0F8D/lkD7bthaD0xy5152II4C3dCNFelx+i7rPPmvirGEbx39um/uiXIIgzqejw3yY0mHElq1cDYKmhoQzWMHfh94gCGIjLs4ntd9ySHcuYIONIDTW1e3Hfqxz46TYV4mS/JUj9p4yZUq5tVuorq5uRKWfcjOCuv1qn6YGww+57VxOvx5fCO3hyR8SsEens6JlCGPhEtCd5gSxqmz65YwNIpW2sZtjYwkahJJ+xsSvHy9sWvDMNeWAVcrYPiMIgcC+bCoFK34R8Hp7vO2wcrO0BWuCk0yiuwv5B2SO/TcxI+LGrt8N0pQdGH776oq9QBDEIgLVtWFW2Ml+yQR6LGY0iKRLJbV0JsuRTxOg2QjoS4JQlgq7LwhCijjGVp8BBff3BkHIhFOuLyRbEGITVT82jKUbSzp0m0FaTfAqEDmGMyo+HutFXoTBRhD0SN0cIhIpqHuGzubh2lcEoSOJvcPhcLkEIbX655+/q2LLpv3Ey9SBru8tpie5bfs8beZMz+/H/DX0JAgPTf45Ea6wNzO4qM3gMpqhoAahRCJQ8EtOdGhvhzdazT1QCIKw5vj82LNcJysRwknk/30hT+8MBs/rRuRbrm/4TEdN0w4A++xKVm9PmvhmOQ5vhdYk0lwr4L8WiH3PHfa0bkSKVA12Dc8kfhLVCdNVPa2bJAh5uDgRuHI0CAE1tN7u3EXJYcNo6Jn8qdgb3KJ/cGrwENNHzlE/hP/V9chPyp1ysBGExljDH5m5UAbVbnD0FUHYuj2+57HHHutZCfVVkciXE2Q+QFb5XgocOMO8WAtOv7Xc+8FpvKVKTXt4sqgKmNEAuKjN0Nk3Z4yLEtBCqSkyKXa09W6oZyqNdDxxvnHRc54dqhOw2esDiCAwI7GrYRglFzPp3FNN7c0g/r4NBi/pRsQxv0D+eE0N6cKKUVAu4QVfB06KNHtfZnrGjBmV27cnrgZzgRzpnasqiyAIKVpNqC5ThVISBJdfpN4kCJoasg2j602CkCHFjQA6U/JaQsJ4QW+MFFPB01LMYCMIRaRa3hQ3ad++qObYuq193EyP396bIpGJJqWcs49285Ug4LOaYHg3N33L6WNJEAKLJp0KVv7qtjZDVxRDcSWgOcnYtjmJRHvvEgSYfGHjx8/chYUlJdUpB1/bMMf8Yk3lTBRwMDEI2ZlKfgOZINjrjQh3Mycu84LkWGGt1QR/CqIbbM+BqElRzNnRaLTkEqx9TBCEjdNWPVuOl3xfmBjEu0ZQDR5rgpYWOptyNAj9SRBEgquNG7+4xDI9de5mJUGw/Voy6GI1ELqDiHpkGXX7u+o2imFLW8euxx133Odu5brt1xirm8/pvCzdMt4WGq8Gw55FtxSaw5IgqH85ch/F738HBKU3S0AnE4y2TQkk4x7aE3qKirPJ85oufKag/dLtAZbSbwBpEAY/QWD8b0Wlck19fb0nlTh7aDBqgle4SF/9ITH9wG1NAWsi0pcahOA/ALItztPbBIFB3zOMhoIRAk7fK+G3Mbxy1N0Mtk6cRbiHOfHDYlJuZ+cUKdL9SvIfdnkpelODINYRqAmdw5RKoFW4SYJgDw+btVpoellh3G4JQtykXcrRVNhtxIjV/x1snf8lfxyBnqsJ1h7h9P0p57olQQg/EB6ZqNwqMoqdX0iLkB5YINuiVR6FVPfuaZqF5mDbpgS4FAWCW05BdEfjgjUiYUy/NEkQ3MPu5NFNoDsVP19erh9FoRUFagIzGcqtIHyp4KoZHVDoKl1v+LX7nXXv2ccaBFFoyjbuuhyCkEqxPHqMyNdgm6irHC98pzwIDD6p1JoSqhq8iED/a1cxUxKEUu/08sZFIpHd/TAfBdmnDk/VMmBzuhqaLkyUJTe3BGFbe2LnY445pqzcNYUWqUfrf0nAZS43sVkNhj3NCdOThBRYSXDRZI0BkdBlfG5WxcxzPkMPevonZGhDOidEjh9C9v9zNRLxtjRBsG1uiUCOkJwhou78xY0LWlxVkHN5KEV1kwTBPVxOBEFUuauoVObV16dSr3reJk+ePLqiYsQiAtumBSbgmpgRsc0vYLe4PiUINaH7QZhrt55yCIL4iqtq7XxCKvNlwcbgWYYRfbSUQ7MnCLwOZJ5banpvTQ3+AaCz7YppSYJQyqmVP8ZoqPtvUTUTRCMcpC1PwndhMBh8p5xZ3RKEcp0hndZoROvdPvX6jyBMeXDKmGE+3Ajic7LaAssUy8XUZsiwhKzaIrHdxLYvHAiC9YPfCeP0dcJzTQtaelUF47SQgUIQGMxAcqA7Kdp+MYjwgcmJGsMwXGUxczobq+taTegxkGWJ32x3AeS1xuAhCL+HKFts08okCHDKpJiamvGu3hjZt5QzCai1NzH4B5ZjiX6h6w2igmQpekjhMPogFMwBixK91q3XCUKg9kw2+V7bip9D0MTQGG24jsHibG0bw7xcC04vO8rELUEot6y0034GBUEQmwg9NEU1ybwbRPv3RgloO4LglkLZgM3c4f/qqu+vKhjf7HRQXlwfKASBCO2KD7t7oZ7Xei+KwenYRbn1r3mdKCn3nJ0JAreCcLmuR28v9f7oUw2CVvtzp8iMcglCMBicaCbpcQAHFMIkVZWOzb+WkhFQqwmJkuXDesgmamKOf9swjJLjwTWt9mYwCxNkwWJnvU0QNC10Ahh/BFDYK32IEYRnnlm+0/atvt8ANM/he/YaWDlfDaUioMpqbgnCCKVizyM0rdci4gYNQRBoBx6eLN6oTqJMiiP3hZqyI7oSJnULnQQQL1KDUNTpMzY1XdDiyhu0KLlFdh4oBAHAFp8f+wxyggD0UqKk7LE6EwR6hcHzDCOyushbobO7poXqwAjbjPcsD4KbdMvlEgSxD1WtvYiYhbai4Js4gK0M/AJI/MpNSfB04izf6wBZFbr5qCOOI5vLDHkNqKFL0muCKKpj2Qj0qK8CP2hoKK9aZCH5wWBQM036AxhfLnhPDDGCoEfqTiSiJ1x8xxarwfApLvo5dnFLEJJo3ycYnPm+o8ASOzRG65MM2+9RVnL/mRiyK5i1eNawT/mD9wkYW9ApsRgzQ05WRVc+CG5Atnjv3Kp0DFu3YJ19Vj43ssvsM4AIwqdVwyu+vGJFeYWhBBz9qEEYAAQBdR9/8sHx69ev7yjl1sg49QnHwWBfEARNC/4UbB+66QVByCT8ERk2j3TAZTuIf7F584jfrFtXuIx1uDo8Ie7jM8Hm5QCNzpP5D2Lz2lhjrGzfIlVV/4Pge8EhlS+DqFbXG6KlnLnTGFG9lJjvsU3SNYQIwvLlyytHVA37Idj8uS12RK0K80+qyyjxnCvfLUHwDVMOmDo19JrTuZZ63YjWC+2EfV6MtPD+JwipB8KiyVcRcK2ds6J7zUJXNENJBMFJCZ0ST/c1nr/mnFIPyMtxA4ggfFTVVnHAijIrR/Y3QSBWjok11osHbK80Zw0CykqUNHPmzBFbWtuetk0IBXimQQhqtT8xmW3ts14QhNR9oYVmgyHCGR3LYjP4RgX0ETE3Rhujz2UP87DDDhsxevSuFxN4KhHNYOZuGgkGPeHzmQuj0eJrfRS6YZzyIIhxvVWLIYPbNDBEkpwJBW/qIUQQotHo3gqSbxBQ6fAlb1CDYTtNXFG/EW4JApl0SE1trajE2SvNvYmB31OD0wrfMx6sznXxouCiyS8C9A0xZ0kloDPjcktDJ7JRDC4e+q73SmBO8OGrvvfMC67H9GLHgUIQhINf5baKg/qEIJT4Y6apoTY7VW/q3gNejBmRb/bWkfU2QejrYk19SRDEmThlPOx2bgQTJv5BRJ1vYybMSgLNtDxfxuPkM78fi8U8Ve/2N0FQ1eAZCtEfmS38LDJAKKBLokbDzeXe94Mhk2JjrGEZi6rCDo2TOFQLh19y6uf2uluCAJ9ytKqGWtzKLbZfEQThGDU4rdiXJdKj9benLQI5jbFeDYWvzl+ra4IQeHjqN0HmutwKj3bpmDM/5j1yH3QRDEKKIBQRxeAGaGb89NOxm25cP7s0FbCbOYrpM4AIwjvtHSO+1tz8VGsx67fq62RiIKAlZkRcpQzNla+q00KEZIPT+sqJqXeS7UAQkgS+N2ZEnRynCk5TW1u7VyLOolz1UTZrGZQahOx+VDV8IMH8pxPWRVz/gpE4NJFIbFq9erXnGezcEQS8FY+3fb3cYmdWe3aTKImRGG4YxvYiMLPsOhgIgpsHpNfkQIDlliD4FGXGVC0k6qn0SnOzfzFxsZkUjVjkQnDyhwr8pyWVjrxQcXM7mRWrQMoDaiB0XXZjrgmCGBBcNPVEgB8lgq9TQLY6Y04SpCwJSBOI7smRuogDkGhjrwnCkna/uWDtvLUlp8H1+sQHCkEA4c2OjrZvePED54Ig6DEjEigWS1fVHNMpo8eV47leaF01NcFvKaA/gHBIgT5ll3sOBoNfMU16CAw7LYhnBCGghi7POOEVPA6vTAy5E6SKUm387CIwiTC1XW1D+HquTKTLFUQ27vPj8EjE+9obuVMGtNDtzLjA6X71KlV5/jwuCEJcNyI9ozicFmxxfSAThOXLl+80otL3L4DGOWzt9aqRicOPOsrbZEVuCQIxn1cTmiaiTjxvuq5XkRkXmlTbVkwtBlENtWbKpONBOFgLTrthzZqVuyYSZuoZTmQmEomRrZqmJV5/fXnle+/6riAiGrf73jccfPDBHUURBO3RyQcrSdwDoknZgV3lm4svAR1vY7R5pEFgxmZF4Ssbz3/mFidw+/L6gCEI4Dc64tsP7QuCAPBK3YjaJhuyOoMMQRC1IpxKu7bpRsQpeUrRx5x5mArHKMvvhSiZHTMiXylacM6AQCDwTTbpAYf0x54RBFUNXUlA5xuB1dp7gyDkzKNoNaE7AD4QRNXW2InQUeXvMDldJ4ToQ5Byi67XOVc5LOcwcsY6JulK+yHMMYzoIo+m7BTjRBAIfGPMiF7qxbwDlSA8//zSEVs2VT4EQJiXbJ5L9GoSydOCwemem5BdEwTQ9TXB2qu8OI98GU2x+mtMxs+cZCdYOSAUcucoaUTrT2LwYVpwWiqnhBGtfxtANifJmwrod1va4w+I7JAvv7x42IaPd7mSQC9Va6EniiIIQnhw0ZQQCHcR0iE5XWaG4kpAD1P8GB4fhfc2bHDCIn3dyU+B8MumC1qcKvG5m8vDXkORIBD4yZgRPakEGMXD5Jcg/NhhbJxB8w2j4b4S5ig4xKlYEyk0NxZr+HM5c2pabU3GY31/GzmeEYSAGrqS+5cgpLapaSFRIjwnYRPfBlY+FfmNmPAJkFxiGMZ75WBbzlhNDQn1vZNTHLw2b6WqiG7r+KFdDRAvCdxAJAjMTKsidSebPuUmMPaxOcdXkuAFweC0pnLOutBYtwSBmZdooWkn9sYaXJ7PEwlW5oVCoU/drEGP1n2oBaftme2bIgiM+3MCKU8GqEkN1F6UIhCRyLeI+OQOEyLtc/GtdnH18QxTsL3UW5zQIvSozZBhD/m5D7Iah138O+HAigPR8FZzzwU4kQGLJVeYybHR7z3rCrDid1z6iKFIEFCGF76mhY8Em8+4QHy1bkSmuujnuosTQfDi4aBpoW/DhMgXsFcfEYSrGbBNC+3lA8hqT5oWuh05KnwCfuMfpizsraJbrg88p6OmheamfjSdGuNuvTGywKmb2+uqOu2/CMl6APtZjiH+ka5Hf+tWnlM/lw8gMPNJWmjak07yvLgei9UdqZj0ZxAKkmYCPjEVHKtp4ee9mNNKRlNT5BAzbjpqrQhYVxMMH+71OvRowyUiWhDg/LDe3Kk+YUU5S3PpA2FE6+9RCA9XB8KdIbqCIKjBcGduEcOIaJQ0H80tH21E6x9XKqouKokgzFo8y/cZPvyE0rbFrqiG3OJNGYLQ+Z+ML0KWIIwfNhZTRhyN+/8p/LXKa8mksnfzxc0flCfF+9EiZGun0WNEJkfLFLN9W+65L00MpYfpZcrfXgpm27LLROhgk3+pN0Z7eN6WcpLizR5sLrWIuU+JI8U8LBaLla3W1LTghTDpFyDs1BcEQdNqrwWzrTq0twhCQK09j8HXAhA25UymQlqr+Mz5XoYplnLe+WPclEvPjHlfSXI4uirqSYbWTP6Igg8lk/mIxpww0HL36pogAJu0YLjXE82tNiJTE8nkEoc8FGhP8O7Tpk3rlRosWUyNaMM8gEUuD/tGeEkNhA916lbM9VWx2JFJTtwF4Ou244huH7f7Xv8t/APcyDdi9W+qgXC3BFw9CEKkrhZEi9RgOPU8F23VqmVjzHjVdSURhKyQ0OIpHwLYI0sS7J0SM86KGW3D+GHjUD1yCu5dv9jNPgv12SYqfTVd0PJiOUJ6a6yqqgcS/DEAneqd3Ln6liCg7xIlMR7QGyNnlYqrqgbPIpCIp7f1RWDgLWbfuY2NdWWmWV2oaNpqkY//Qas1izfetvYxP2tpecTRechpzwE1tJABYQvsdPS1GOOZiUHTgr8Gk63JxmuCUF0dnuDzJWeB6cYee2O8QKY5L7aqfLLlhHWx1wM1tScxpSJMbH8XGbw0Ht9+uhf+PAE11MSAhSaM2xi4wDCizlqNIjbqliAIkf5K7D1lSrhXXrzWRiK7baNkHYEOc1j+xgQrB7pVpxcBRY+uRqS+BWQbXZQd87JvWMfUqVOP8ySiJpMY6idgU5DpQk3o1R9Tg+FZxeyxEEFgJTElK4e44h4CH1DTk0iIBImlt/DjR4/nhLKUgSMszQzZCIcUgxD/dFV4HF85DjUjpuJP68vw+WHc3J40f7b2+2t7pfRm6cikR6pq8BRRohiAJRPvY4Kw3efHHn2Tapn/qBvR88rBT1WD9xDoXKcfaxBuqdpWcWU5+R0y1QJFPn+r78OrpPjmxmJ1z5azn+xYrab2BhD/1EGWZwRBVYN/JtAZdvN5RRCqq0MH+Xy0P5iX2O6P6bdM8asNw9jiBaZeyQjWBL9lgu4DYaKzTLqfEb+0nGgaTas9vgBWDMJfRo0afv7SpYWzTTqvsXuPSGTFIX7yPwWwq6JZBGwzFZqmabUlpxXPX2MksmR3hUccpSj8PwC+ZfM0/JSInkty8n96wyHRal634YWZsU+wUjFf07SS64AIOU2x+qApso8ybDWmAB5Wg+FTiz3zQgQBwAsE7MapzKf07LB48sSjp0//LFe+Ea1/pyyCIISFHz76q6wod4GQinsvnG0xleEwPT8Be1SOQ2h0IEUQOpJFZkRO+yg8z35esGrBwEiIZHVwWk3oNhDm2xSCWV0xTPm2F+WLq6vD+/kU8027G8iLMC3xduhXkrdxoWQ26QWs1I1I0VEMuWsPBGrDzHwv2NZWnxlCd3XEt/241Dc6raZWVC39YQ/sCK8BNF/XGxqL/WIW6t/XBEFTQ7key5bL8oogZMJfbQsfZRYgHoB3MuN9w4g4/TB6Bb0rOaoaUgmprIb/5TSAQH+pHO4/b8WKFe1OffOvp+5vk0VGzZ5FohgfkM88JxaLCd8Ez1pjrP5ONnkeiOzqZXSbj4F3FNCdppJ8VNOml1VF1YjUX5vxMxBvwXYatE0ALt7WnlgiPOs9A8BG0NKlS0eMHlG5tYi5PgXj5qqOxM1HlbBGMd9OoyrnsQlBlAqGdVKqSin/viY47b+LWFtnVzsTQ2Nj3QQkcYvJtGzDp1/cO3v2bBFenGrNzXXj4230o7IJAhZCCR009SRScBPA+9iWhs7JibBH1Tics/dcPPjKY1j/6evWe7dwVkx9RHgDinn8qvPXemIHLAV4N2M0LbQYDBuVELcylCsMo0Go08tqmhpaBaBTbWQlzAuCoKrB7xDoTwDsHGle0o1I2Ta6YE1wkkm0xiUwjWBaqzc2XOayf6qbVhO6H4S5FmM2kWIGvPA7yJXtkiC8z+DvGUa0bCcxN+F7BH44ZkSLfjvJx0xTa+8DuBjTUhyMwuYhgknAdvLxbdFoNFLMuZbTV1XD5xLMW52yeqbmYI4xJU8oRhuiacH5MOkyUMoxscdvsMl8dGNj1NNMfZniR+J3xs45tsDvMHcQ0d8Z+JSBd7Vg2HWiMD1SdwopOBucIiW1ThpBBi9UAL2mlyIVrDbYGIvMB8zZzLb1UayGbgR4PUAfuH27j8VWHKCw8jtAqQL4CDszqoiWUIhu357g5mnTphVDXnIIQkODGqgVuHd9luOkqEfrriSmuRVJnjI5x8ejMVr/G1Mx7yyfIAhVuqcoJ3kAAA+bSURBVK76Kz6O/w4+Ol8w4m7ZFnNmEBqE7J97VI3H5fv/Nx5+7SlE3mnqEcZoF8jQkTR3HqhmBXEKIp4fqPiRQnytXfrUzIltB9G3db1heak/alpN6GV3alF8AVJCul6/rpS5MhnyhBexU54CwUS/YNCl5YYiBoPB3c0kuS2tmhCpmJmUi3W9fq3dHlPVB8HXgDHGqgKhF2Qqf/7qau14n+ITNrWClQNzxtQx/OcbxkqhASipqTWhD4is/V9yBRLBZNAz8XjbceVkKiyBILjZl/gp2AawhVMWvcPgHxuGt+Qh/f31CdPMHDcLFPc6CI/ounjQ2LegGp5jwry30D2QSFaMX7VqhcvYb/u5mlau3DNZobxIwDBR14AzUWdOa3S4Lr7bxbzVi3t9uOOczNtAdMaonXdddvjhhxepUnaU3qODrkfmkGn+PqPBEetz8520nEi85TMgtB4uGvsLOULnDmYmY0vb9mNnzpy5zYXQgl10ffEoxdzlbzXB8H9mO+U6KWYSMz1GSVxSEw53vqkb0folHUlc4AlByE5cu3jKWhCOsHNWzJoZjtm9FtP3COGhV5ag/m13GlwG3t9z3D77PjL7kU5VSDngeTE2/WOCsYqijGRTeRRAql5FiW0Tg3+gKLza7/d/ZBUGlqo+RzQSpu/7pNB5+cVsipg3bjKd5fMln43FYm9YjZs8efLoioqK3Ql+EftvlxrYcVoC3wyFb6ncWrmhWH+BdHIhpc5NEaBuDz7QX6Aku4X4MdPpYLqmwIIFS99Iijm53Hz/4XB4ZEcH70/gmwCIBEElf9cY+DfAP1QUfrGtre2DlpaWHs6SwSnBL/MwHmuavusJHCpnPgAJBp8JJFcXmZuANFUUseGDHW+IXuhAivlf8XjFtlWr6oTzdNlNVWsXpEiku8p62fmSio8nMXM3ey4nlRgIX7JeFLeClXsVv3ltNBotK1Q7Gl15hA+K0LrZqfDLxsYjAe8RaJtwDFUDYSe/nLKmXLNmzfCObVtvArEjiStrovIGfwJwqxqc5mjeKmYaI1q/XCG6baoWWk5E3Bitb6wJhmuyMhqj9XeIYmRiXpGwauumqisS4FXBYLi+5B+tQgusXTxlGRGOTXkjdKZhTvfOJQ6/mrgQIypG4JHXn8aKN2Mw2XTa8zofMMe4qKUsO5jTJMVeF2/VgPkA2TjcFCsz1d+kE/Smhqfyx2pqyG0pUNfTForvF0VkCFRWYqAei2BeoDdGnUOJ8gaqanA6oFxIYA3AKNebc9dRvKW+S8Ct5ON7y/2RFlOqavBEgqt69u5WmO1FpFr5RGhqSLxpOL+pFTEbAc/FjIhQg7puqhr6XwI8yfrnetKcjgy8SOQ7p6Zm0t8XLlzo+KPiNIcwc7EopAQc5NS3pOuMx5mowTAahDNzWS2VcCjWcJYJCA3FQG2bwPwsiD6lBP+0Ztq0t/pioU2xhmPZ5AeY0qH5A6gxAasY+IDAd/SGaUXX9VHEiV+xaeq+jmRj9THHWGqoUtoEjn+fiEwT/js1TdviOUFQn1B3qUgmfk9MZ2YJgjiMziiHjJnh5kN+CZ/ix1ut/8adLz6Aj7bahrg+lwTNX3PRGs8qd3l1g4ha7mAWFbXsbPLFTycJQg/MZsyYsVNbW8csAn2vTE1Np2zxEGTihwF6VdcjwmnMkzZUCYIAT1VrLyOkci84maI8wTpfiDhTYr4o2hgV5rAS0q51lxisCU5NknIEgUXKam9IGOEOZnpj+HD/raU4OVoBt3jxYt/43XZ5xY2DZa8AX0AoEbUy+CY2hRqeN8KXqNO0Y92aDT1Zaqxh5WmKoliGMXsyQfFCloPQCHDcZ/qWTA2FbB3MixfffURzNLpvAsk5AO3CzNvUULhb+nUjVn8VTBpNCl4yyb9c07RU2nPPCYIQOmPx1HFJRYRtsIhnTxUZ6SII6WlvOeRX8Pn88Pl8uLb5t3j1M0std8oh0YRybPOFza+WC1JvjM9U5xO2rG97Jp9hMvEJhhFdli9zMGsQRJXHhIkFTU2Rsmqph6pDB5l+ZU+wOYcZrh2mumFJeAigu4DER7que35vDWWCAIi8Es2TYPJpIIiohv5orzASU8sJQ+zx3dNqJzOb4xTQtQx8rehNsbDd081QEGWO/80wjHTtCY+arut+MuO9br+3Wy4RNgDKlUmYnd8pxVQ6tnV0vHDMMccUHe3hETTob4LA4N8wUefveTJJbzU3N7/nhZbLLUZCQwDEDwRoFDGuJuYKMZYZT/l89EIySe1qqHsZ614hCGLSw+46rGLsbiNEQhhRH6EiJ8IxxRZu/fqv4fP7U1oE498t+ONLDyLJGdeCHM7vG1k53Din/DKnbkEsoR9NnDir4j+Hb+8ZrlSCMDFEZCb58per2h95pKevxaRJk4aP7Rjr6bktXWcday38K0a3jvakipzYV2J8IrlixQrhbFb2W13qHjvssIq9sFfqJt8yqu16EOxDgQinj9o8PBUZ8AE+iK9bt67XfkwDgXAApnklE68EzDoi+qKjY/jmMW2K6x9Jcw+zcuvWrTsD/n2I8V0mpRnouN8wjET+rRWoCZxkQvkxgZ4zYS7zJ/FGsm3E5tEpBz/n1jq6VamsrBydbEvuYpIZAiki0dE9scbSa09k758to9tEBsoDnFfheY/eKOpFqqpWjm4drXwxIjHSr8T/AcJ425UTnTBqVFVk48aNvM8++3RYfa+92rkIn/NKVilydtutjSdNWt9OVL55p5T5C41hZt+yZcsca214OWeurFGjRnWIiom9Jb9Yubn3SVtbW2L27NmWmRk9fdBYLTK8dNKB1O5fKtReWS3C5LFH4bQJs1Lag6wW4fLY9Xjz83dSIpjRQYR3t1V0TFy3oPd+xIsFVfaXCEgE3CMgChFt3Zrcy0dmBJQu7pZu/BGYPgORDVEU3t7YHcDO5Wg6FR8fEI1GX3O/atlTIiARyCLQ6wRBTFS7ZPJeSpweJqJUStHffu16DB82Aj4lSxD8UBQ/ftV8M559/wVhi3ks4cPNLRe0vC+PSiIgERh8CITD4fHxePI8ML4LUDbE6mMw6hTwX3Ydv2vM7k168uTjR1f6t81hBZMyMfQAm/uBSDhNug9JY3ygN0b2HnwIyhVLBPofgT4hCGKbxzw+5Ssm0x0AAr875AYMrxjRqT3w+SqgKD5sS7R9OHfJBWc1LmgWbxyeqKH7H2K5AonA0EJAmH52GjXmYRBO7lIaoEPkFYg1NjxRKhrV1bX7+3w8lRkjCLjFlRxJEFzBJDtJBKwQ6DOCICY/7qnJX5o34dwnD9554qEVvoougqBUpPwRFMX38pgx//FVeVQSAYnA4ERAVQNnK1Au5NywX8JrIv+EYTR4VqpXRA8xm6cSKFXDvmCTBGFw3khy1QMCgT4lCGLHb73V/A1QRYtP8Vel/Q/S5gW/348xY/bziRjMAYGMXIREQCJQFAJaTeiPAM7OzUxJwOvk4+nRaNTzMC7hBEns+xmI7MpZb4gn+KjVq72fvyhwZGeJwCBEoM8JgsDonXee36Io/pFdToqpaIYPxuy6n7QVDsKbSC55aCMgskbG4+bVYHQvK034BKBzykkj7oRsoDocyOSM379A34+3t/smtrTUdcts6CRXXpcISAR6KQ+CE7DvvPPC5z6ff5cUQVD8KfNCRYV/5k477dsj7t9JlrwuEZAI9B8CCxcuVBr15l+A+Cd5qxAVG2/S9UjPKpkeL1dVg48T6CRLsdLE4DHaUtxQQqBfNAhvv/38eRUVlfdkQxwFSdi6rWLEhAkTeuSYH0qHIfcqERhsCKTMCiQiFbo3YVpgUs50KprlxX5VNXgKMd0Nwk495EmC4AXEUsYQRaBfCIJICTplysRELkHYstUvCcIQvQnltgcvAjblpFfrRiQV1tzbbdasWcM2bvhc+Dj0NFFKgtDb8Ev5OzAC/UIQBJ4ffvgyZ50URT6E1i0+SRB24BtNbm3HQ0BTgy8B9PUCO+szgiDm19RaUfFynx5rIZqi6w3NOx76ckcSgd5HoN8Iwkcf/ZNzMylu3qxIgtD75y1nkAh4hoBWE/obCIcUENg8dtyYmt5MK5ydN1UCHf5nLMoyb9eNiDfFlTxDTQqSCAweBPqNIHz88StpgpBxUhw9GiOIpA/C4Ll15EqHOgIOBOEdUmh+LNZQ39s4aVrtzWC+QNR8yZ2LwL+KGdHLe3t+KV8isKMi0G8E4ZNPXv2bz+c/JEsSRo1mSRB21LtM7muHRMCBIIhSsTfFjIh9AS0PkAmooScYODFXFAM6kDjZ64qJHixXipAIDBoE+o0gbNjw+s98Pt81WYIwcpQpCcKguW3kQiUCgBNBAPApg8+2KlvuFX6qWns+gX8NYHQ3mYTTdT3yMACZeM0rsKWcIYdAvxGEL754+5vMvC4byTBiRFIShCF3+8kND2YEVPXEXQhbPrffA9/PSF5qGMZGr/eqquoexP4bQTgtR3YCRFfresPPvZ5PypMIDDUE+o0gbNz49kF+P9anfBB8fgwfEZcEYajdfXK/gx4BTQ19CGAP240Qfmea/FBjY/Q5rzYcCAT2hqnMY+DqrEwidLDJN+mN0cu8mkfKkQgMZQT6jSC0bnz7INNP60UWRUESqoZ3SIIwlO9EufdBiUCgpvZUJv6ri8V/xOD/NoyoUPuX1TQtOB9MYQDfzhVEwMLdxo25vi8iJ8ragBwsERgkCPQfQWh9+yA2feuzuRAqq7ZLgjBIbhq5TIlAFgGRarnJWP1TBq5zgcoGMHTymQ9v2rRp2bp16+IuxnR2CarhE002TxWFYUEY0Z0c0AUxo+EuQJaJLwZT2VciYIdAvxIEwN9pYhhW2SYJgrxXJQKDEIHq6vAEn2LeA2Cam+UT4TNmbAKQZOBJvx/XRyIR8XePFgiE5nES6VBFBbuAsWt+JwafDyT/aBhGws38so9EQCLgDoF+IwibN38wVlFwk6L4pvt8/qpPPtk2TtZicHdospdEYKAhEKwJTjKJfgfgcAC+PlhfkkHLE4lhZ61e/bSDo2QfrEZOIRHYARHoN4KQi2Ui8dkMn29MPREld0CM5ZYkAkMCgWOPPXbMti3tv7Eq3uQxAI0MfsUwoud7LFeKkwhIBHIQGBAEQZ6IREAisOMgEFBD1zNjv7zww3I32A5AZ+B5IHGjTIBULpxyvETAGQFJEJwxkj0kAhKBIhE4+ujw+MpKcxIYF4CoFsxKkSKy3dtAOBWgeDJJ/2xqqn+rRDlymERAIlAkApIgFAmY7C4RkAi4RyAUCu1MbTQyXhFXAN+3iZWrQTzGRkKCgDt9cfqF6LNdUXjVqjqRa0E2iYBEoI8R+H8nHtxgjtH78AAAAABJRU5ErkJggg==;" parent="1" vertex="1">
                    <mxGeometry x="313" y="504" width="224.96" height="61" as="geometry"/>
                </mxCell>
                <mxCell id="23" value="Some Database" style="text;strokeColor=none;fillColor=none;align=left;verticalAlign=middle;spacingTop=-1;spacingLeft=4;spacingRight=4;rotatable=0;labelPosition=right;points=[];portConstraint=eastwest;fontSize=14;" parent="1" vertex="1">
                    <mxGeometry x="355" y="490" width="20" height="14" as="geometry"/>
                </mxCell>
                <mxCell id="24" value="GET , POST, PUT, DELETE" style="rounded=1;whiteSpace=wrap;html=1;" parent="1" vertex="1">
                    <mxGeometry x="180" y="90" width="120" height="40" as="geometry"/>
                </mxCell>
            </root>
        </mxGraphModel>
    </diagram>
</mxfile>